<?xml version="1.0" encoding="utf-8"?>
<!-- Generator: Adobe Illustrator 21.1.0, SVG Export Plug-In . SVG Version: 6.00 Build 0)  -->
<!DOCTYPE svg PUBLIC "-//W3C//DTD SVG 1.1//EN" "http://www.w3.org/Graphics/SVG/1.1/DTD/svg11.dtd">
<svg version="1.1" id="Layer_1" xmlns="http://www.w3.org/2000/svg" xmlns:xlink="http://www.w3.org/1999/xlink" x="0px" y="0px"
	 viewBox="0 0 980 980" style="enable-background:new 0 0 980 980;" xml:space="preserve">
<style type="text/css">
	.st0{fill:#F94E4E;}
</style>
<g>
	<path class="st0" d="M490,613.8L149.9,953.9c-34.6,34.6-90.1,34.7-124.3,0.5c-34.4-34.4-34-89.8,0.5-124.3L366.2,490L26.1,149.9
		C-8.5,115.3-8.6,59.8,25.6,25.6c34.4-34.4,89.8-34,124.3,0.5L490,366.2L830.1,26.1c34.6-34.6,90.1-34.7,124.3-0.5
		c34.4,34.4,34,89.8-0.5,124.3L613.8,490l340.1,340.1c34.6,34.6,34.7,90.1,0.5,124.3c-34.4,34.4-89.8,34-124.3-0.5L490,613.8z"/>
</g>
</svg>
